<?xml version="1.0" encoding="utf-8"?>
<!-- Generator: Adobe Illustrator 15.0.0, SVG Export Plug-In . SVG Version: 6.00 Build 0)  -->
<!DOCTYPE svg PUBLIC "-//W3C//DTD SVG 1.1//EN" "http://www.w3.org/Graphics/SVG/1.1/DTD/svg11.dtd">
<svg version="1.1" id="Layer_1" xmlns="http://www.w3.org/2000/svg" xmlns:xlink="http://www.w3.org/1999/xlink" x="0px" y="0px"
	 width="42px" height="83.001px" viewBox="0 0 42 83.001" enable-background="new 0 0 42 83.001" xml:space="preserve">
<g>
	<rect x="-66.5" y="0" fill="#FFFFFF" width="42" height="83"/>
	<g>
		<g>
			<path fill="#969696" d="M-36.356,67.482c5.923,5.932,3.425,7.719,6.592,10.206C-34.242,74.914-36.362,72.803-36.356,67.482z"/>
			<path fill="#969696" d="M-41.041,64.017c5.627,7.295,2.822,7.877,5.627,10.445C-39.703,71.372-41.621,68.838-41.041,64.017z"/>
			<path fill="#969696" d="M-45.193,60.054c2.186,3.736,4.437,10.717,4.437,10.717C-44.354,67.725-46.504,64.747-45.193,60.054z"/>
			<path fill="#969696" d="M-48.68,55.637c2.932,6.628,1.339,8.577,3.015,10.887C-48.766,63.247-50.771,59.797-48.68,55.637z"/>
			<path fill="#969696" d="M-51.356,50.771c1.614,6.311,0.171,8.756,1.347,10.939C-52.575,58.222-54.056,54.212-51.356,50.771z"/>
			<path fill="#969696" d="M-53.068,45.536c0.377,7.451-1.174,8.566-0.449,10.778C-56.233,50.865-55.107,47.189-53.068,45.536z"/>
			<path fill="#969696" d="M-53.802,40.015c-0.419,3.684-2.231,10.394-2.231,10.394C-57.115,46.746-57.188,41.791-53.802,40.015z"/>
			<path fill="#969696" d="M-53.564,34.376c-1.42,6.11-3.751,7.845-3.829,9.78C-57.781,40.617-57,35.395-53.564,34.376z"/>
			<path fill="#969696" d="M-52.43,28.74c-1.428,3.662-5.137,9.041-5.14,9.047C-57.291,33.294-55.094,29.009-52.43,28.74z"/>
			<path fill="#969696" d="M-50.483,23.225c-2.038,3.985-6.183,8.274-6.183,8.274C-55.826,27.099-52.676,23.063-50.483,23.225z"/>
			<path fill="#969696" d="M-47.924,18.319c-2.016,2.627-4.313,4.98-6.891,7.056C-52.625,19.404-49.025,17.865-47.924,18.319z"/>
			<path fill="#969696" d="M-44.237,13.953c0,0-0.14,0.142-0.385,0.373l-0.446,0.413c-0.173,0.153-0.373,0.323-0.588,0.51
				c-2.066,1.629-4.253,3.079-6.557,4.354c1.188-2.37,3.863-4.964,6.461-5.669c0.293-0.084,0.6-0.129,0.906-0.132
				C-44.627,13.788-44.424,13.844-44.237,13.953z"/>
			<path fill="#969696" d="M-41.926,75.812c0,0,0.188,0.129,0.511,0.324c0.165,0.098,0.376,0.209,0.608,0.326
				c0.23,0.117,0.532,0.248,0.803,0.362l0.457,0.192l0.251,0.072l0.257,0.075c3.809,1.228,5.995-0.086,9.103,0.828
				C-35.509,74.236-42.146,75.733-41.926,75.812z"/>
			<path fill="#969696" d="M-47.282,71.395c4.3,3.726,8.655,2.259,11.667,3.405C-41.223,70.377-46.187,71.729-47.282,71.395z"/>
			<path fill="#969696" d="M-52.126,66.297c3.979,4.468,8.318,3.45,11.124,4.808C-45.857,66.618-49.377,67.05-52.126,66.297z"/>
			<path fill="#969696" d="M-56.225,60.5c3.176,5.105,7.982,4.902,10.242,6.366C-50.18,61.961-54.059,61.638-56.225,60.5z"/>
			<path fill="#969696" d="M-59.326,54.053c2.229,5.714,7.092,6.372,8.954,7.979C-53.674,57.025-56.557,56.058-59.326,54.053z"/>
			<path fill="#969696" d="M-61.197,47.134c0.881,5.942,5.895,7.812,7.229,9.42C-56.223,51.415-59.089,49.507-61.197,47.134z"/>
			<path fill="#969696" d="M-61.735,40.082c-0.048,6.433,4.229,8.756,5.185,10.516C-58.052,45.04-59.733,43.381-61.735,40.082z"/>
			<path fill="#969696" d="M-61.047,33.124c-1.16,6.258,2.646,9.741,3.084,11.132C-58.096,41.705-58.791,38.238-61.047,33.124z"/>
			<path fill="#969696" d="M-59.326,26.465c-2.156,6.032,0.884,9.68,1.124,11.325C-57.862,33.944-58.236,30.168-59.326,26.465z"/>
			<path fill="#969696" d="M-56.683,20.199c-3.017,5.722-0.583,9.648-0.61,11.183C-56.479,27.684-56.272,23.958-56.683,20.199z"/>
			<path fill="#969696" d="M-53.021,14.229c-4.166,5.02-2.197,9.579-2.434,10.954C-54.059,21.722-53.043,14.697-53.021,14.229z"/>
			<path fill="#969696" d="M-48.334,9.29c-0.131,0.126-0.245,0.218-0.493,0.46c-4.696,4.523-3.636,8.204-4.038,9.557
				C-52.804,19.231-48.875,12.141-48.334,9.29z"/>
			<path fill="#969696" d="M-49.173,14.569c4.54-2.081,7.476-6.408,10.401-9.312C-41.912,6.346-48.564,10.587-49.173,14.569z"/>
		</g>
	</g>
</g>
<g>
	<rect y="0" fill="#FFFFFF" width="42" height="83"/>
	<g>
		<path fill="#969696" d="M11.604,67.358c-5.923,5.932-3.418,7.719-6.592,10.206C9.497,74.79,11.61,72.678,11.604,67.358z"/>
		<path fill="#969696" d="M16.29,63.892c-5.622,7.295-2.816,7.877-5.622,10.445C14.957,71.248,16.87,68.713,16.29,63.892z"/>
		<path fill="#969696" d="M20.444,59.929c-2.186,3.736-4.439,10.717-4.439,10.717C19.603,67.6,21.755,64.623,20.444,59.929z"/>
		<path fill="#969696" d="M23.931,55.512c-2.934,6.628-1.339,8.577-3.018,10.887C24.014,63.123,26.021,59.672,23.931,55.512z"/>
		<path fill="#969696" d="M26.607,50.646c-1.612,6.311-0.167,8.756-1.35,10.939C27.823,58.097,29.307,54.087,26.607,50.646z"/>
		<path fill="#969696" d="M28.319,45.412c-0.379,7.451,1.172,8.566,0.452,10.778C31.487,50.741,30.355,47.065,28.319,45.412z"/>
		<path fill="#969696" d="M29.056,39.89c0.413,3.684,2.231,10.394,2.231,10.394C32.368,46.622,32.441,41.667,29.056,39.89z"/>
		<path fill="#969696" d="M28.816,34.251c1.422,6.11,3.753,7.845,3.825,9.78C33.032,40.493,32.252,35.27,28.816,34.251z"/>
		<path fill="#969696" d="M27.679,28.616c1.433,3.662,5.142,9.041,5.142,9.047C32.542,33.169,30.344,28.884,27.679,28.616z"/>
		<path fill="#969696" d="M25.737,23.1c2.036,3.985,6.18,8.274,6.18,8.274C31.075,26.974,27.924,22.939,25.737,23.1z"/>
		<path fill="#969696" d="M23.172,18.195c2.019,2.627,4.316,4.98,6.894,7.056C27.873,19.28,24.276,17.741,23.172,18.195z"/>
		<path fill="#969696" d="M19.485,13.829c0,0,0.14,0.142,0.385,0.373l0.446,0.413c0.173,0.153,0.379,0.323,0.591,0.51
			c2.069,1.629,4.256,3.079,6.559,4.354c-1.188-2.37-3.864-4.964-6.464-5.669c-0.295-0.084-0.597-0.129-0.903-0.132
			C19.882,13.664,19.675,13.719,19.485,13.829z"/>
		<path fill="#969696" d="M17.177,75.687c0,0-0.185,0.129-0.514,0.324c-0.161,0.098-0.373,0.209-0.603,0.326
			c-0.233,0.117-0.535,0.248-0.803,0.362l-0.457,0.192l-0.257,0.072l-0.257,0.075c-3.809,1.228-5.989-0.086-9.096,0.828
			C10.763,74.112,17.394,75.609,17.177,75.687z"/>
		<path fill="#969696" d="M22.53,71.27c-4.3,3.726-8.655,2.259-11.662,3.405C16.474,70.252,21.438,71.605,22.53,71.27z"/>
		<path fill="#969696" d="M27.377,66.172c-3.982,4.468-8.321,3.45-11.126,4.808C21.108,66.494,24.628,66.925,27.377,66.172z"/>
		<path fill="#969696" d="M31.477,60.375c-3.18,5.105-7.986,4.902-10.245,6.366C25.431,61.836,29.307,61.513,31.477,60.375z"/>
		<path fill="#969696" d="M34.577,53.928c-2.23,5.714-7.089,6.372-8.957,7.978C28.928,56.901,31.811,55.933,34.577,53.928z"/>
		<path fill="#969696" d="M36.445,47.009c-0.881,5.942-5.895,7.812-7.222,9.42C31.477,51.291,34.343,49.382,36.445,47.009z"/>
		<path fill="#969696" d="M36.986,39.958c0.051,6.433-4.232,8.756-5.181,10.516C33.306,44.916,34.984,43.256,36.986,39.958z"/>
		<path fill="#969696" d="M36.301,33c1.16,6.258-2.649,9.741-3.09,11.132C33.351,41.581,34.042,38.114,36.301,33z"/>
		<path fill="#969696" d="M34.577,26.34c2.152,6.032-0.887,9.68-1.127,11.325C33.11,33.82,33.489,30.043,34.577,26.34z"/>
		<path fill="#969696" d="M31.934,20.075c3.018,5.722,0.58,9.648,0.608,11.183C31.728,27.559,31.526,23.833,31.934,20.075z"/>
		<path fill="#969696" d="M28.27,14.104c4.172,5.02,2.197,9.579,2.438,10.954C29.313,21.597,28.292,14.573,28.27,14.104z"/>
		<path fill="#969696" d="M23.585,9.166c0.134,0.126,0.245,0.218,0.49,0.46c4.696,4.523,3.643,8.204,4.044,9.557
			C28.052,19.107,24.126,12.016,23.585,9.166z"/>
		<path fill="#969696" d="M24.421,14.445c-4.534-2.081-7.473-6.408-10.401-9.312C17.16,6.221,23.813,10.462,24.421,14.445z"/>
	</g>
</g>
</svg>
