<?xml version="1.0" encoding="utf-8"?>
<!-- Generator: Adobe Illustrator 15.0.0, SVG Export Plug-In . SVG Version: 6.00 Build 0)  -->
<!DOCTYPE svg PUBLIC "-//W3C//DTD SVG 1.1//EN" "http://www.w3.org/Graphics/SVG/1.1/DTD/svg11.dtd">
<svg version="1.1" id="Layer_1" xmlns="http://www.w3.org/2000/svg" xmlns:xlink="http://www.w3.org/1999/xlink" x="0px" y="0px"
	 width="600px" height="48px" viewBox="0 0 600 48" enable-background="new 0 0 600 48" xml:space="preserve">
<rect fill="none" width="600" height="48"/>
<g>
	<g>
		<rect x="380.952" y="25.011" fill="#969696" width="204.164" height="1.219"/>
		<rect x="14.259" y="25.011" fill="#969696" width="211.309" height="1.219"/>
	</g>
	<g>
		<path d="M246.497,17.047l-6.781,14.355h1.602l2.236-4.725h6.184l2.26,4.725h1.551l-6.699-14.355H246.497z M244.212,25.295
			l2.459-5.198l2.447,5.198H244.212z"/>
		<path d="M260.849,23.293c-1.049-0.775-1.668-1.255-1.857-1.433c-0.342-0.346-0.58-0.664-0.709-0.959
			c-0.135-0.29-0.195-0.594-0.195-0.909c0-0.513,0.184-0.945,0.553-1.296c0.361-0.352,0.836-0.527,1.416-0.527
			c0.451,0,0.865,0.115,1.25,0.34c0.379,0.229,0.836,0.703,1.377,1.417l1.172-0.887c-0.658-0.898-1.277-1.517-1.869-1.852
			s-1.221-0.502-1.902-0.502c-0.635,0-1.227,0.151-1.768,0.446c-0.547,0.295-0.965,0.7-1.266,1.213
			c-0.301,0.516-0.447,1.085-0.447,1.709c0,0.787,0.252,1.517,0.76,2.197c0.295,0.402,1.037,1.054,2.236,1.96
			c1.188,0.898,2.014,1.665,2.459,2.303c0.33,0.461,0.49,0.935,0.49,1.414c0,0.424-0.111,0.825-0.334,1.201
			c-0.217,0.377-0.541,0.678-0.965,0.901c-0.424,0.226-0.875,0.341-1.361,0.341c-1.121,0-2.113-0.793-2.973-2.373l-1.221,0.732
			c0.598,1.094,1.25,1.871,1.963,2.338c0.709,0.463,1.5,0.696,2.371,0.696c1.131,0,2.096-0.385,2.883-1.151
			c0.793-0.768,1.188-1.67,1.188-2.713c0-0.723-0.229-1.442-0.691-2.158C262.944,25.027,262.091,24.21,260.849,23.293z"/>
		<path d="M281.222,23.293c-1.049-0.775-1.668-1.255-1.857-1.433c-0.346-0.346-0.58-0.664-0.715-0.959
			c-0.127-0.29-0.195-0.594-0.195-0.909c0-0.513,0.186-0.945,0.553-1.296c0.369-0.352,0.842-0.527,1.422-0.527
			c0.447,0,0.865,0.115,1.244,0.34c0.379,0.229,0.842,0.703,1.383,1.417l1.172-0.887c-0.658-0.898-1.283-1.517-1.869-1.852
			c-0.59-0.334-1.221-0.502-1.902-0.502c-0.635,0-1.227,0.151-1.768,0.446c-0.547,0.295-0.965,0.7-1.266,1.213
			c-0.301,0.516-0.451,1.085-0.451,1.709c0,0.787,0.256,1.517,0.764,2.197c0.289,0.402,1.037,1.054,2.236,1.96
			c1.188,0.898,2.008,1.665,2.459,2.303c0.324,0.461,0.486,0.935,0.486,1.414c0,0.424-0.111,0.825-0.33,1.201
			c-0.223,0.377-0.547,0.678-0.971,0.901c-0.418,0.226-0.869,0.341-1.354,0.341c-1.127,0-2.121-0.793-2.979-2.373l-1.217,0.732
			c0.598,1.094,1.25,1.871,1.957,2.338c0.715,0.463,1.502,0.696,2.377,0.696c1.133,0,2.092-0.385,2.883-1.151
			c0.793-0.768,1.184-1.67,1.184-2.713c0-0.723-0.229-1.442-0.691-2.158C283.313,25.027,282.464,24.21,281.222,23.293z"/>
		<polygon points="292.47,31.402 300.642,31.402 300.642,29.997 293.903,29.997 293.903,24.358 300.642,24.358 300.642,22.953 
			293.903,22.953 293.903,18.452 300.696,18.452 300.696,17.047 292.47,17.047 		"/>
		<polygon points="305.565,31.402 313.735,31.402 313.735,29.997 306.999,29.997 306.999,24.358 313.735,24.358 313.735,22.953 
			306.999,22.953 306.999,18.452 313.792,18.452 313.792,17.047 305.565,17.047 		"/>
		<polygon points="328.521,28.051 318.968,17.047 318.655,17.047 318.655,31.402 320.138,31.402 320.138,20.532 329.614,31.402 
			329.938,31.402 329.938,17.047 328.521,17.047 		"/>
		<path d="M352.671,18.859c-1.461-1.45-3.285-2.175-5.461-2.175c-1.338,0-2.588,0.334-3.736,1.001
			c-1.154,0.667-2.064,1.59-2.732,2.769c-0.664,1.177-0.998,2.454-0.998,3.834c0,2.069,0.73,3.834,2.197,5.29
			c1.461,1.456,3.262,2.187,5.387,2.187c2.107,0,3.887-0.73,5.35-2.197c1.461-1.462,2.191-3.246,2.191-5.349
			C354.868,22.1,354.138,20.312,352.671,18.859z M352.593,27.342c-0.535,0.938-1.271,1.676-2.221,2.215
			c-0.947,0.541-1.98,0.814-3.096,0.814c-1.666,0-3.094-0.589-4.277-1.766c-1.182-1.174-1.773-2.615-1.773-4.322
			c0-1.152,0.268-2.198,0.803-3.137c0.531-0.937,1.277-1.682,2.227-2.236c0.953-0.552,1.957-0.831,3.021-0.831
			c1.082,0,2.104,0.279,3.068,0.831c0.965,0.555,1.713,1.293,2.248,2.214c0.529,0.92,0.791,1.952,0.791,3.09
			C353.384,25.362,353.122,26.405,352.593,27.342z"/>
		<polygon points="366.306,17.047 366.306,28.051 356.747,17.047 356.435,17.047 356.435,31.402 357.919,31.402 357.919,20.532 
			367.399,31.402 367.718,31.402 367.718,17.047 		"/>
	</g>
</g>
</svg>
